G04 Layer_Color=20142*
%FSLAX24Y24*%
%MOIN*%
G70*
G01*
G75*
%ADD77R,0.0276X0.1142*%
%ADD78R,0.0256X0.0118*%
%ADD79R,0.1339X0.1319*%
%ADD80R,0.1182X0.0671*%
%ADD81R,0.0474X0.0513*%
%ADD82R,0.0493X0.0474*%
%ADD83R,0.0395X0.0395*%
%ADD84C,0.0680*%
%ADD85C,0.0552*%
%ADD86C,0.1360*%
%ADD87C,0.0671*%
%ADD88R,0.0671X0.0671*%
%ADD89C,0.0780*%
G04:AMPARAMS|DCode=90|XSize=78mil|YSize=78mil|CornerRadius=21.5mil|HoleSize=0mil|Usage=FLASHONLY|Rotation=90.000|XOffset=0mil|YOffset=0mil|HoleType=Round|Shape=RoundedRectangle|*
%AMROUNDEDRECTD90*
21,1,0.0780,0.0350,0,0,90.0*
21,1,0.0350,0.0780,0,0,90.0*
1,1,0.0430,0.0175,0.0175*
1,1,0.0430,0.0175,-0.0175*
1,1,0.0430,-0.0175,-0.0175*
1,1,0.0430,-0.0175,0.0175*
%
%ADD90ROUNDEDRECTD90*%
%ADD91C,0.1980*%
%ADD92R,0.0680X0.0680*%
%ADD93C,0.0867*%
%ADD94R,0.0867X0.0867*%
%ADD95C,0.1458*%
%ADD96R,0.1458X0.1458*%
%ADD97C,0.0880*%
%ADD98R,0.0880X0.0880*%
%ADD99C,0.0474*%
%ADD100C,0.0336*%
%ADD101C,0.0316*%
%ADD102C,0.0218*%
%ADD103C,0.0332*%
D77*
X12942Y28740D02*
D03*
D78*
X13593Y29213D02*
D03*
Y28976D02*
D03*
Y28740D02*
D03*
Y28504D02*
D03*
Y28268D02*
D03*
X12392D02*
D03*
Y28504D02*
D03*
Y28740D02*
D03*
Y28976D02*
D03*
Y29213D02*
D03*
D79*
X15453Y33573D02*
D03*
D80*
X11201Y29370D02*
D03*
Y28189D02*
D03*
X14606Y28150D02*
D03*
Y29331D02*
D03*
X16142Y28150D02*
D03*
Y29331D02*
D03*
D81*
X24841Y41849D02*
D03*
X24290D02*
D03*
X12867Y32492D02*
D03*
X12315D02*
D03*
X12878Y31629D02*
D03*
X12326D02*
D03*
D82*
X22750Y41849D02*
D03*
X23340D02*
D03*
D83*
X23378Y42722D02*
D03*
X22748D02*
D03*
X24910Y42731D02*
D03*
X24280D02*
D03*
X9370Y28346D02*
D03*
X8740D02*
D03*
X7795D02*
D03*
X7165D02*
D03*
D84*
X5906Y27953D02*
D03*
X27559Y42913D02*
D03*
X5906D02*
D03*
X27559Y27953D02*
D03*
X19472Y41732D02*
D03*
X18472D02*
D03*
X17472D02*
D03*
X16472D02*
D03*
X15472D02*
D03*
X14472D02*
D03*
X13472D02*
D03*
X19472Y36732D02*
D03*
X18472D02*
D03*
X17472D02*
D03*
X16472D02*
D03*
X15472D02*
D03*
X14472D02*
D03*
X13472D02*
D03*
D85*
X5882Y36457D02*
D03*
X6583Y36059D02*
D03*
X5882Y35657D02*
D03*
X6583Y35260D02*
D03*
Y36858D02*
D03*
X5882Y34858D02*
D03*
X6583Y34461D02*
D03*
X5882Y34063D02*
D03*
D86*
X4882Y37961D02*
D03*
Y32961D02*
D03*
D87*
X18972Y26846D02*
D03*
X19972D02*
D03*
X20972D02*
D03*
X21972D02*
D03*
X18972Y29846D02*
D03*
X19972D02*
D03*
X20972D02*
D03*
D88*
X21972D02*
D03*
D89*
X28285Y37058D02*
D03*
Y35978D02*
D03*
Y34898D02*
D03*
Y33818D02*
D03*
X27165Y36518D02*
D03*
Y35438D02*
D03*
Y34358D02*
D03*
Y33278D02*
D03*
D90*
Y37598D02*
D03*
D91*
X27725Y30518D02*
D03*
Y40358D02*
D03*
D92*
X20472Y41732D02*
D03*
Y36732D02*
D03*
D93*
X24622Y27559D02*
D03*
X24583Y29980D02*
D03*
X24602Y28780D02*
D03*
X19346Y32264D02*
D03*
X17534Y29596D02*
D03*
X8980Y40043D02*
D03*
X12618Y30709D02*
D03*
X22387Y38224D02*
D03*
X18051Y39444D02*
D03*
D94*
X23622Y27559D02*
D03*
X23583Y29980D02*
D03*
X23602Y28780D02*
D03*
X18346Y32264D02*
D03*
D95*
X10447Y43613D02*
D03*
D96*
X8479D02*
D03*
D97*
X14447Y44094D02*
D03*
X15947D02*
D03*
X17447D02*
D03*
D98*
X18947D02*
D03*
D99*
X23326Y41276D02*
D03*
X24845Y41255D02*
D03*
D100*
X10198Y28365D02*
D03*
X19027Y33611D02*
D03*
X16996Y34809D02*
D03*
X13415Y33459D02*
D03*
X13898Y32404D02*
D03*
X13246Y31622D02*
D03*
X16870Y30787D02*
D03*
X17408Y31167D02*
D03*
X14190Y34163D02*
D03*
X23338Y38287D02*
D03*
X23688Y38484D02*
D03*
X9117Y28799D02*
D03*
X8287Y28465D02*
D03*
X15728Y35207D02*
D03*
X16743Y30463D02*
D03*
X15837Y31211D02*
D03*
X16644Y31850D02*
D03*
X16723Y33102D02*
D03*
X13939Y33553D02*
D03*
X15315Y34911D02*
D03*
X15896Y34006D02*
D03*
X15463D02*
D03*
X15030D02*
D03*
X15896Y33573D02*
D03*
X15463D02*
D03*
X15030D02*
D03*
X15896Y33140D02*
D03*
X15463D02*
D03*
X15030D02*
D03*
X14567Y34656D02*
D03*
X15069Y35256D02*
D03*
X16053Y34980D02*
D03*
X18186Y35448D02*
D03*
D101*
X16634Y31457D02*
D03*
D102*
X12943Y39272D02*
D03*
X13081Y39055D02*
D03*
D103*
X9754Y32411D02*
D03*
X9843Y31998D02*
D03*
M02*
