G04 Layer_Physical_Order=2*
G04 Layer_Color=11436288*
%FSLAX24Y24*%
%MOIN*%
G70*
G01*
G75*
%ADD14R,0.0413X0.0394*%
%ADD16C,0.0100*%
%ADD17C,0.0492*%
%ADD18C,0.1575*%
%ADD19C,0.0886*%
%ADD20C,0.0118*%
%ADD21C,0.0394*%
%ADD23C,0.0197*%
%ADD34C,0.0600*%
%ADD35C,0.0472*%
%ADD36C,0.1280*%
%ADD37C,0.0591*%
%ADD38R,0.0591X0.0591*%
%ADD39C,0.0700*%
G04:AMPARAMS|DCode=40|XSize=70mil|YSize=70mil|CornerRadius=17.5mil|HoleSize=0mil|Usage=FLASHONLY|Rotation=90.000|XOffset=0mil|YOffset=0mil|HoleType=Round|Shape=RoundedRectangle|*
%AMROUNDEDRECTD40*
21,1,0.0700,0.0350,0,0,90.0*
21,1,0.0350,0.0700,0,0,90.0*
1,1,0.0350,0.0175,0.0175*
1,1,0.0350,0.0175,-0.0175*
1,1,0.0350,-0.0175,-0.0175*
1,1,0.0350,-0.0175,0.0175*
%
%ADD40ROUNDEDRECTD40*%
%ADD41C,0.1900*%
%ADD42R,0.0600X0.0600*%
%ADD43C,0.0787*%
%ADD44R,0.0787X0.0787*%
%ADD45C,0.1378*%
%ADD46R,0.1378X0.1378*%
%ADD47C,0.0800*%
%ADD48R,0.0800X0.0800*%
%ADD49C,0.0394*%
%ADD50C,0.0256*%
%ADD51C,0.0236*%
%ADD52C,0.0138*%
%ADD53C,0.0252*%
%ADD54R,0.0591X0.1102*%
%ADD55R,0.0354X0.0394*%
%ADD56R,0.0374X0.0413*%
%ADD57R,0.0433X0.0354*%
%ADD58R,0.0571X0.0512*%
%ADD59R,0.0315X0.0354*%
%ADD60R,0.0354X0.0354*%
%ADD61O,0.0315X0.0098*%
%ADD62O,0.0098X0.0315*%
%ADD63R,0.1457X0.1457*%
%ADD64C,0.1280*%
%ADD65C,0.0138*%
%ADD66R,0.1141X0.2780*%
%ADD67R,0.0188X0.0182*%
%ADD68R,0.0226X0.0564*%
%ADD69R,0.0551X0.0177*%
%ADD70R,0.0374X0.0354*%
%ADD71R,0.0197X0.0659*%
G36*
X16434Y34220D02*
X16425Y34211D01*
X16378D01*
X16301Y34212D01*
X16417Y34251D01*
X16434Y34220D01*
D02*
G37*
G36*
X28525Y44827D02*
X28699Y44785D01*
X28864Y44717D01*
X29017Y44623D01*
X29153Y44507D01*
X29269Y44371D01*
X29362Y44218D01*
X29431Y44053D01*
X29473Y43879D01*
X29486Y43708D01*
X29483Y43701D01*
Y27165D01*
X29486Y27158D01*
X29473Y26987D01*
X29431Y26813D01*
X29362Y26648D01*
X29269Y26495D01*
X29153Y26359D01*
X29017Y26243D01*
X28864Y26149D01*
X28699Y26081D01*
X28525Y26039D01*
X28353Y26026D01*
X28346Y26028D01*
X5118D01*
X5111Y26026D01*
X4940Y26039D01*
X4766Y26081D01*
X4600Y26149D01*
X4448Y26243D01*
X4312Y26359D01*
X4196Y26495D01*
X4102Y26648D01*
X4034Y26813D01*
X3992Y26987D01*
X3978Y27158D01*
X3981Y27165D01*
Y28208D01*
X4031Y28228D01*
X5953Y26307D01*
X5985Y26285D01*
X6024Y26278D01*
X19504D01*
X19542Y26285D01*
X19575Y26307D01*
X19817Y26549D01*
X19885Y26520D01*
X19972Y26509D01*
X20060Y26520D01*
X20141Y26554D01*
X20211Y26608D01*
X20265Y26678D01*
X20298Y26759D01*
X20310Y26846D01*
X20298Y26934D01*
X20265Y27015D01*
X20211Y27085D01*
X20141Y27139D01*
X20060Y27172D01*
X19972Y27184D01*
X19885Y27172D01*
X19804Y27139D01*
X19734Y27085D01*
X19680Y27015D01*
X19646Y26934D01*
X19635Y26846D01*
X19646Y26759D01*
X19675Y26691D01*
X19462Y26478D01*
X19089D01*
X19079Y26528D01*
X19141Y26554D01*
X19211Y26608D01*
X19265Y26678D01*
X19298Y26759D01*
X19310Y26846D01*
X19298Y26934D01*
X19265Y27015D01*
X19211Y27085D01*
X19141Y27139D01*
X19060Y27172D01*
X18972Y27184D01*
X18885Y27172D01*
X18804Y27139D01*
X18734Y27085D01*
X18680Y27015D01*
X18652Y26947D01*
X5931D01*
X5552Y27326D01*
X5582Y27367D01*
X5648Y27331D01*
X5774Y27293D01*
X5906Y27280D01*
X6037Y27293D01*
X6163Y27331D01*
X6279Y27394D01*
X6381Y27477D01*
X6465Y27579D01*
X6527Y27695D01*
X6565Y27822D01*
X6578Y27953D01*
X6565Y28084D01*
X6527Y28210D01*
X6465Y28326D01*
X6381Y28428D01*
X6279Y28512D01*
X6163Y28574D01*
X6037Y28612D01*
X5906Y28625D01*
X5774Y28612D01*
X5648Y28574D01*
X5532Y28512D01*
X5430Y28428D01*
X5346Y28326D01*
X5284Y28210D01*
X5246Y28084D01*
X5233Y27953D01*
X5246Y27822D01*
X5284Y27695D01*
X5319Y27629D01*
X5279Y27599D01*
X5141Y27737D01*
Y31928D01*
X5819Y32606D01*
X5834Y32627D01*
X5841Y32638D01*
X5848Y32676D01*
Y33366D01*
X5841Y33405D01*
X5819Y33437D01*
X5499Y33757D01*
Y34333D01*
X5771Y34606D01*
X5810Y34590D01*
X5882Y34580D01*
X5954Y34590D01*
X6021Y34618D01*
X6076Y34659D01*
X6082Y34666D01*
X6123Y34719D01*
X6150Y34786D01*
X6160Y34858D01*
X6150Y34930D01*
X6123Y34997D01*
X6078Y35055D01*
X6021Y35099D01*
X5996Y35109D01*
X6005Y35159D01*
X6326D01*
X6342Y35121D01*
X6386Y35063D01*
X6444Y35019D01*
X6511Y34991D01*
X6583Y34982D01*
X6655Y34991D01*
X6722Y35019D01*
X6779Y35063D01*
X6823Y35121D01*
X6851Y35188D01*
X6861Y35260D01*
X6851Y35332D01*
X6823Y35399D01*
X6779Y35456D01*
X6722Y35501D01*
X6655Y35528D01*
X6583Y35538D01*
X6511Y35528D01*
X6444Y35501D01*
X6386Y35456D01*
X6342Y35399D01*
X6326Y35360D01*
X6015D01*
X6005Y35410D01*
X6021Y35417D01*
X6078Y35461D01*
X6123Y35519D01*
X6150Y35586D01*
X6160Y35657D01*
X6150Y35729D01*
X6123Y35796D01*
X6078Y35854D01*
X6021Y35898D01*
X5954Y35926D01*
X5882Y35935D01*
X5810Y35926D01*
X5743Y35898D01*
X5685Y35854D01*
X5641Y35796D01*
X5613Y35729D01*
X5604Y35657D01*
X5613Y35586D01*
X5641Y35519D01*
X5685Y35461D01*
X5743Y35417D01*
X5759Y35410D01*
X5752Y35364D01*
X5750Y35360D01*
X5714Y35353D01*
X5703Y35345D01*
X5681Y35331D01*
X4031Y33681D01*
X3981Y33701D01*
Y43651D01*
X3982Y43701D01*
X3982D01*
X3982D01*
X3983D01*
X3985Y43701D01*
X3985Y43701D01*
X3985D01*
X3985D01*
D01*
X3985Y43701D01*
Y43701D01*
X3984Y43714D01*
X3984Y43718D01*
X3984Y43723D01*
X3984Y43723D01*
X3983Y43726D01*
X3983Y43738D01*
X3983Y43739D01*
X3983Y43739D01*
X3982Y43747D01*
X3982Y43751D01*
X3986Y43799D01*
X3992Y43879D01*
X4034Y44053D01*
X4102Y44218D01*
X4196Y44371D01*
X4312Y44507D01*
X4448Y44623D01*
X4600Y44717D01*
X4766Y44785D01*
X4940Y44827D01*
X5111Y44841D01*
X5118Y44838D01*
X9814D01*
X9826Y44811D01*
X9830Y44788D01*
X9301Y44259D01*
X9289Y44229D01*
Y42826D01*
X9289Y42826D01*
X9301Y42796D01*
X10982Y41116D01*
Y37281D01*
X10994Y37251D01*
X11354Y36891D01*
Y36420D01*
X11326Y36392D01*
X11313Y36361D01*
Y35679D01*
X10906D01*
Y35336D01*
X10799Y35229D01*
X8720D01*
Y35354D01*
X8209D01*
Y34921D01*
X8720D01*
Y35047D01*
X9142D01*
X9161Y35000D01*
X9101Y34940D01*
X9088Y34910D01*
Y32624D01*
X9088Y32624D01*
X9101Y32593D01*
X9101Y32593D01*
X9125Y32569D01*
X9156Y32557D01*
X9592D01*
X9619Y32507D01*
X9598Y32476D01*
X9594Y32455D01*
X8659Y31520D01*
X8639Y31490D01*
X8637Y31479D01*
X8223Y31065D01*
X8203Y31036D01*
X8196Y31001D01*
Y28605D01*
X8167Y28585D01*
X8130Y28530D01*
X8117Y28465D01*
X8130Y28399D01*
X8167Y28344D01*
X8222Y28307D01*
X8287Y28294D01*
X8353Y28307D01*
X8408Y28344D01*
X8445Y28399D01*
X8458Y28465D01*
X8445Y28530D01*
X8408Y28585D01*
X8379Y28605D01*
Y30963D01*
X8797Y31382D01*
X8817Y31411D01*
X8819Y31421D01*
X8819Y31423D01*
X9667Y32271D01*
X9689Y32256D01*
X9754Y32243D01*
X9818Y32256D01*
X9873Y32292D01*
X9910Y32347D01*
X9915Y32372D01*
X9965Y32367D01*
Y32175D01*
X9915Y32149D01*
X9907Y32154D01*
X9843Y32167D01*
X9778Y32154D01*
X9723Y32117D01*
X9687Y32063D01*
X9674Y31998D01*
X9687Y31934D01*
X9722Y31881D01*
X9330Y31490D01*
X9311Y31460D01*
X9304Y31426D01*
Y29115D01*
X9151Y28963D01*
X9117Y28970D01*
X9051Y28957D01*
X8996Y28920D01*
X8959Y28865D01*
X8946Y28799D01*
X8959Y28734D01*
X8996Y28679D01*
X9051Y28642D01*
X9117Y28629D01*
X9182Y28642D01*
X9237Y28679D01*
X9274Y28734D01*
X9287Y28799D01*
X9280Y28834D01*
X9459Y29013D01*
X9479Y29043D01*
X9486Y29078D01*
Y31388D01*
X9907Y31809D01*
X9915Y31820D01*
X9940Y31818D01*
X9965Y31805D01*
Y28372D01*
X9983Y28280D01*
X10035Y28202D01*
X10113Y28150D01*
X10206Y28132D01*
X10298Y28150D01*
X10376Y28202D01*
X10428Y28280D01*
X10446Y28372D01*
Y32557D01*
X10570D01*
X10570Y32557D01*
X10601Y32569D01*
X10601Y32569D01*
X10666Y32635D01*
X10679Y32665D01*
Y33706D01*
X11365Y34393D01*
X11821D01*
X11870Y34390D01*
Y33917D01*
X12303D01*
Y34241D01*
X12626Y34564D01*
X14427D01*
X14446Y34535D01*
X14502Y34498D01*
X14567Y34485D01*
X14632Y34498D01*
X14654Y34513D01*
X14704Y34486D01*
Y34351D01*
X14717Y34321D01*
X14747Y34309D01*
X14973D01*
X15003Y34321D01*
X15006Y34327D01*
X15034Y34336D01*
X15069Y34329D01*
X15103Y34336D01*
X15108Y34339D01*
X15137Y34330D01*
X15167Y34318D01*
X15364D01*
X15394Y34330D01*
X15423Y34339D01*
X15428Y34336D01*
X15463Y34329D01*
X15497Y34336D01*
X15526Y34355D01*
X15529Y34360D01*
X15562Y34368D01*
X15571Y34369D01*
X15589Y34365D01*
X15596Y34355D01*
X15625Y34336D01*
X15659Y34329D01*
X15694Y34336D01*
X15713Y34348D01*
X15725Y34347D01*
X15727Y34348D01*
X15728Y34347D01*
X15742Y34353D01*
X15756Y34357D01*
X15786Y34352D01*
X15807Y34346D01*
X15822Y34336D01*
X15856Y34329D01*
X15891Y34336D01*
X15920Y34355D01*
X15921Y34357D01*
X15927Y34360D01*
X15967Y34368D01*
X15983Y34365D01*
X15989Y34355D01*
X16019Y34336D01*
X16053Y34329D01*
X16088Y34336D01*
X16117Y34355D01*
X16118Y34357D01*
X16378D01*
X16378Y34357D01*
X16408Y34369D01*
X16408Y34369D01*
X16445Y34406D01*
X16585D01*
X16615Y34419D01*
X16627Y34449D01*
Y34687D01*
X16772Y34831D01*
X16818Y34807D01*
X16816Y34800D01*
X16830Y34733D01*
X16868Y34677D01*
X16893Y34660D01*
X16896Y34606D01*
X16545Y34255D01*
X16464D01*
X16455Y34272D01*
X16450Y34275D01*
X16447Y34281D01*
X16441Y34284D01*
X16436Y34289D01*
X16432Y34289D01*
X16429Y34292D01*
X16423Y34291D01*
X16417Y34293D01*
X16411Y34291D01*
X16404Y34291D01*
X16287Y34252D01*
X16283Y34249D01*
X16274Y34247D01*
X16245Y34227D01*
X16226Y34198D01*
X16219Y34163D01*
X16226Y34129D01*
X16245Y34100D01*
X16274Y34080D01*
X16309Y34073D01*
X16413D01*
X16417Y34072D01*
X16582D01*
X16617Y34079D01*
X16647Y34099D01*
X17033Y34485D01*
X17037Y34487D01*
X17037Y34487D01*
X17038Y34487D01*
X17219Y34668D01*
X17219Y34668D01*
X17220Y34668D01*
X17226Y34683D01*
X17232Y34698D01*
X17232Y34698D01*
X17232Y34698D01*
Y34757D01*
X17235Y34833D01*
X17234Y34835D01*
X17235Y34836D01*
X17228Y34850D01*
X17223Y34864D01*
X17222Y34864D01*
X17221Y34866D01*
X17211Y34870D01*
X17208Y34885D01*
X17172Y34938D01*
X17120Y34973D01*
X17057Y34985D01*
X17011Y34976D01*
X16996Y34979D01*
X16942Y34969D01*
X16906Y34989D01*
X16893Y35001D01*
Y35165D01*
X17050Y35322D01*
X17096Y35303D01*
Y35295D01*
X17530D01*
Y35440D01*
X17962D01*
X17970Y35442D01*
X17998Y35446D01*
X18024Y35406D01*
X18029Y35383D01*
X18066Y35328D01*
X18095Y35308D01*
Y35252D01*
X17908Y35064D01*
X17888Y35035D01*
X17885Y35020D01*
X17756D01*
Y34547D01*
X18189D01*
Y35020D01*
X18186D01*
X18167Y35066D01*
X18251Y35149D01*
X18270Y35179D01*
X18277Y35214D01*
Y35308D01*
X18307Y35328D01*
X18344Y35383D01*
X18346Y35396D01*
X18401Y35412D01*
X18936Y34877D01*
Y33751D01*
X18906Y33731D01*
X18869Y33676D01*
X18856Y33611D01*
X18869Y33545D01*
X18906Y33490D01*
X18961Y33453D01*
X19027Y33440D01*
X19092Y33453D01*
X19147Y33490D01*
X19184Y33545D01*
X19197Y33611D01*
X19184Y33676D01*
X19147Y33731D01*
X19118Y33751D01*
Y34915D01*
X19111Y34950D01*
X19091Y34980D01*
X18341Y35730D01*
X18311Y35750D01*
X18276Y35757D01*
X18096D01*
X18061Y35750D01*
X18052Y35743D01*
X18032Y35730D01*
X17924Y35623D01*
X17530D01*
Y35768D01*
X17123D01*
Y35834D01*
X17123Y35834D01*
X17123Y35834D01*
X17156Y35884D01*
X22802D01*
X22841Y35892D01*
X22873Y35913D01*
X23759Y36799D01*
X23781Y36831D01*
X23788Y36870D01*
Y38350D01*
X23808Y38364D01*
X23845Y38419D01*
X23858Y38484D01*
X23845Y38550D01*
X23808Y38605D01*
X23753Y38642D01*
X23688Y38655D01*
X23623Y38642D01*
X23567Y38605D01*
X23530Y38550D01*
X23517Y38484D01*
X23530Y38419D01*
X23567Y38364D01*
X23587Y38350D01*
Y36911D01*
X22761Y36085D01*
X21348D01*
X21327Y36135D01*
X23314Y38122D01*
X23338Y38117D01*
X23403Y38130D01*
X23458Y38167D01*
X23495Y38222D01*
X23508Y38287D01*
X23495Y38353D01*
X23458Y38408D01*
X23403Y38445D01*
X23338Y38458D01*
X23273Y38445D01*
X23217Y38408D01*
X23180Y38353D01*
X23167Y38287D01*
X23172Y38263D01*
X22814Y37905D01*
X22776Y37938D01*
X22809Y37981D01*
X22857Y38098D01*
X22874Y38224D01*
X22857Y38350D01*
X22809Y38467D01*
X22731Y38568D01*
X22631Y38645D01*
X22513Y38694D01*
X22387Y38710D01*
X16191D01*
X15959Y38943D01*
Y41732D01*
X15942Y41858D01*
X15894Y41976D01*
X15816Y42076D01*
X15716Y42154D01*
X15598Y42202D01*
X15472Y42219D01*
X15347Y42202D01*
X15229Y42154D01*
X15128Y42076D01*
X15051Y41976D01*
X15003Y41858D01*
X14986Y41732D01*
Y38741D01*
X14986Y38741D01*
X15003Y38615D01*
X15051Y38498D01*
X15128Y38397D01*
X15646Y37880D01*
X15646Y37880D01*
X15703Y37836D01*
X15747Y37803D01*
X15795Y37783D01*
X15864Y37754D01*
X15990Y37738D01*
X22387D01*
X22513Y37754D01*
X22631Y37803D01*
X22673Y37835D01*
X22706Y37798D01*
X21178Y36270D01*
X17077D01*
X16774Y36573D01*
X16803Y36644D01*
X16815Y36732D01*
X16803Y36821D01*
X16769Y36903D01*
X16714Y36974D01*
X16648Y37025D01*
X16649Y37041D01*
X16662Y37075D01*
X17282D01*
X17296Y37041D01*
X17296Y37025D01*
X17230Y36974D01*
X17176Y36903D01*
X17142Y36821D01*
X17130Y36732D01*
X17142Y36644D01*
X17176Y36561D01*
X17230Y36490D01*
X17301Y36436D01*
X17384Y36402D01*
X17472Y36390D01*
X17561Y36402D01*
X17644Y36436D01*
X17714Y36490D01*
X17769Y36561D01*
X17803Y36644D01*
X17815Y36732D01*
X17803Y36821D01*
X17769Y36903D01*
X17714Y36974D01*
X17648Y37025D01*
X17649Y37041D01*
X17662Y37075D01*
X18282D01*
X18296Y37041D01*
X18296Y37025D01*
X18230Y36974D01*
X18176Y36903D01*
X18142Y36821D01*
X18130Y36732D01*
X18142Y36644D01*
X18176Y36561D01*
X18230Y36490D01*
X18301Y36436D01*
X18384Y36402D01*
X18472Y36390D01*
X18561Y36402D01*
X18644Y36436D01*
X18714Y36490D01*
X18769Y36561D01*
X18803Y36644D01*
X18815Y36732D01*
X18803Y36821D01*
X18769Y36903D01*
X18714Y36974D01*
X18648Y37025D01*
X18649Y37041D01*
X18662Y37075D01*
X19001D01*
X19175Y36901D01*
X19142Y36821D01*
X19130Y36732D01*
X19142Y36644D01*
X19176Y36561D01*
X19230Y36490D01*
X19301Y36436D01*
X19384Y36402D01*
X19472Y36390D01*
X19561Y36402D01*
X19644Y36436D01*
X19714Y36490D01*
X19769Y36561D01*
X19803Y36644D01*
X19815Y36732D01*
X19803Y36821D01*
X19769Y36903D01*
X19714Y36974D01*
X19644Y37029D01*
X19561Y37063D01*
X19472Y37075D01*
X19384Y37063D01*
X19304Y37030D01*
X19150Y37184D01*
X19169Y37230D01*
X19846D01*
X20133Y36943D01*
Y36393D01*
X20812D01*
Y37072D01*
X20262D01*
X19948Y37386D01*
X19918Y37405D01*
X19883Y37412D01*
X15560D01*
X13800Y39173D01*
X13800Y39173D01*
X13788Y39185D01*
X13636Y39336D01*
X13607Y39356D01*
X13572Y39363D01*
X13016D01*
X13001Y39390D01*
X13000Y39418D01*
X13884Y40302D01*
X13897Y40332D01*
Y43093D01*
X13884Y43123D01*
X12220Y44788D01*
X12223Y44811D01*
X12235Y44838D01*
X28346D01*
X28353Y44841D01*
X28525Y44827D01*
D02*
G37*
G36*
X5610Y34905D02*
X5604Y34858D01*
X5613Y34786D01*
X5629Y34748D01*
X5327Y34446D01*
X5306Y34413D01*
X5298Y34375D01*
Y33716D01*
X5306Y33677D01*
X5327Y33645D01*
X5648Y33325D01*
Y32718D01*
X5501Y32571D01*
X5460Y32601D01*
X5513Y32699D01*
X5551Y32827D01*
X5565Y32961D01*
X5551Y33094D01*
X5513Y33222D01*
X5449Y33340D01*
X5365Y33443D01*
X5261Y33528D01*
X5143Y33591D01*
X5015Y33630D01*
X4882Y33643D01*
X4749Y33630D01*
X4621Y33591D01*
X4503Y33528D01*
X4399Y33443D01*
X4314Y33340D01*
X4251Y33222D01*
X4238Y33179D01*
X4188Y33186D01*
Y33554D01*
X5563Y34929D01*
X5610Y34905D01*
D02*
G37*
G36*
X15630Y35276D02*
X15817D01*
X15886Y35207D01*
Y35128D01*
X15778Y35020D01*
Y34843D01*
X15728Y34793D01*
Y34390D01*
X15610Y34400D01*
Y35295D01*
X15630Y35276D01*
D02*
G37*
G36*
X12861Y39199D02*
X12865Y39194D01*
X12901Y39170D01*
X12943Y39161D01*
X12969Y39167D01*
X12970Y39166D01*
X12994Y39120D01*
X12979Y39097D01*
X12970Y39055D01*
X12979Y39013D01*
X13003Y38977D01*
X13038Y38953D01*
X13081Y38945D01*
X13123Y38953D01*
X13139Y38964D01*
X13554D01*
X15416Y37102D01*
X15445Y37082D01*
X15480Y37075D01*
X16282D01*
X16296Y37041D01*
X16296Y37025D01*
X16230Y36974D01*
X16176Y36903D01*
X16142Y36821D01*
X16130Y36732D01*
X16142Y36644D01*
X16176Y36561D01*
X16230Y36490D01*
X16301Y36436D01*
X16384Y36402D01*
X16472Y36390D01*
X16561Y36402D01*
X16632Y36431D01*
X16921Y36142D01*
X16909Y36083D01*
X16897Y36078D01*
X16673Y36301D01*
X16643Y36314D01*
X13062D01*
X13013Y36363D01*
Y36533D01*
X13038Y36550D01*
X13058Y36579D01*
X13065Y36614D01*
X13058Y36649D01*
X13038Y36679D01*
X13013Y36695D01*
Y38872D01*
X13013Y38872D01*
X13001Y38902D01*
X12777Y39126D01*
X12778Y39177D01*
X12810Y39206D01*
X12861Y39199D01*
D02*
G37*
G36*
X17020Y34828D02*
X17192Y34835D01*
X17189Y34757D01*
Y34698D01*
X17007Y34517D01*
X17011Y34837D01*
X17020Y34828D01*
D02*
G37*
G36*
X13854Y43093D02*
Y40332D01*
X12886Y39364D01*
X12865Y39350D01*
X12851Y39329D01*
X12709Y39187D01*
Y39133D01*
X12971Y38872D01*
Y36345D01*
X13044Y36271D01*
X16643D01*
X17081Y35834D01*
Y35413D01*
X16850Y35183D01*
Y34970D01*
X16585Y34705D01*
Y34449D01*
X16427D01*
X16378Y34400D01*
X16004D01*
X15994Y34409D01*
Y34783D01*
X16112D01*
X16240Y34911D01*
Y35077D01*
X15903Y35250D01*
X15887Y35266D01*
X15886Y35272D01*
X15849Y35327D01*
X15794Y35364D01*
X15728Y35377D01*
X15663Y35364D01*
X15648Y35354D01*
X14990Y35443D01*
X14845Y35284D01*
X14900Y35229D01*
Y35200D01*
X14940Y35138D01*
X14943Y35121D01*
X14954Y35107D01*
X14972Y34904D01*
X14967Y34891D01*
X14959Y34863D01*
X14400D01*
Y34926D01*
X14397Y34930D01*
X14232Y34882D01*
X14136Y34747D01*
X12589D01*
X12554Y34740D01*
X12544Y34733D01*
X12524Y34720D01*
X12395Y34591D01*
X12341Y34591D01*
X12186Y34435D01*
X11348D01*
X10636Y33724D01*
Y32665D01*
X10570Y32599D01*
X9156D01*
X9131Y32624D01*
Y34910D01*
X9250Y35028D01*
X11184D01*
X11343Y35187D01*
X11358D01*
Y35679D01*
X11356D01*
Y36361D01*
X11397Y36402D01*
Y36909D01*
X11024Y37281D01*
Y41133D01*
X9331Y42826D01*
Y44229D01*
X9865Y44763D01*
X12185D01*
X13854Y43093D01*
D02*
G37*
G36*
X4251Y32699D02*
X4314Y32581D01*
X4399Y32478D01*
X4503Y32393D01*
X4621Y32330D01*
X4749Y32291D01*
X4882Y32278D01*
X5015Y32291D01*
X5143Y32330D01*
X5241Y32383D01*
X5272Y32342D01*
X4968Y32039D01*
X4947Y32006D01*
X4939Y31968D01*
X4941Y31960D01*
Y27695D01*
X4946Y27668D01*
X4905Y27639D01*
X4905Y27639D01*
X4188Y28355D01*
Y32735D01*
X4238Y32743D01*
X4251Y32699D01*
D02*
G37*
G36*
X5890Y26746D02*
X18652D01*
X18680Y26678D01*
X18734Y26608D01*
X18804Y26554D01*
X18866Y26528D01*
X18856Y26478D01*
X6065D01*
X5833Y26710D01*
X5834Y26711D01*
X5863Y26751D01*
X5890Y26746D01*
D02*
G37*
%LPC*%
G36*
X21972Y27184D02*
X21885Y27172D01*
X21804Y27139D01*
X21734Y27085D01*
X21680Y27015D01*
X21646Y26934D01*
X21635Y26846D01*
X21646Y26759D01*
X21680Y26678D01*
X21734Y26608D01*
X21804Y26554D01*
X21885Y26520D01*
X21972Y26509D01*
X22060Y26520D01*
X22141Y26554D01*
X22211Y26608D01*
X22265Y26678D01*
X22298Y26759D01*
X22310Y26846D01*
X22298Y26934D01*
X22265Y27015D01*
X22211Y27085D01*
X22141Y27139D01*
X22060Y27172D01*
X21972Y27184D01*
D02*
G37*
G36*
X28285Y35291D02*
X28184Y35278D01*
X28089Y35239D01*
X28008Y35176D01*
X27945Y35095D01*
X27906Y35000D01*
X27893Y34898D01*
X27906Y34797D01*
X27945Y34702D01*
X28008Y34621D01*
X28089Y34558D01*
X28184Y34519D01*
X28285Y34506D01*
X28387Y34519D01*
X28482Y34558D01*
X28563Y34621D01*
X28625Y34702D01*
X28665Y34797D01*
X28678Y34898D01*
X28665Y35000D01*
X28625Y35095D01*
X28563Y35176D01*
X28482Y35239D01*
X28387Y35278D01*
X28285Y35291D01*
D02*
G37*
G36*
X27165Y35831D02*
X27064Y35818D01*
X26969Y35779D01*
X26888Y35716D01*
X26825Y35635D01*
X26786Y35540D01*
X26773Y35438D01*
X26786Y35337D01*
X26825Y35242D01*
X26888Y35161D01*
X26969Y35098D01*
X27064Y35059D01*
X27165Y35046D01*
X27267Y35059D01*
X27362Y35098D01*
X27443Y35161D01*
X27505Y35242D01*
X27545Y35337D01*
X27558Y35438D01*
X27545Y35540D01*
X27505Y35635D01*
X27443Y35716D01*
X27362Y35779D01*
X27267Y35818D01*
X27165Y35831D01*
D02*
G37*
G36*
X20972Y27184D02*
X20885Y27172D01*
X20804Y27139D01*
X20734Y27085D01*
X20680Y27015D01*
X20646Y26934D01*
X20635Y26846D01*
X20646Y26759D01*
X20680Y26678D01*
X20734Y26608D01*
X20804Y26554D01*
X20885Y26520D01*
X20972Y26509D01*
X21060Y26520D01*
X21141Y26554D01*
X21211Y26608D01*
X21265Y26678D01*
X21298Y26759D01*
X21310Y26846D01*
X21298Y26934D01*
X21265Y27015D01*
X21211Y27085D01*
X21141Y27139D01*
X21060Y27172D01*
X20972Y27184D01*
D02*
G37*
G36*
X24016Y30413D02*
X23150D01*
Y29547D01*
X24016D01*
Y30413D01*
D02*
G37*
G36*
X18199Y34291D02*
X17766D01*
Y33819D01*
X18077D01*
X19185Y32711D01*
X19175Y32662D01*
X19128Y32642D01*
X19038Y32573D01*
X18968Y32482D01*
X18925Y32377D01*
X18910Y32264D01*
X18925Y32151D01*
X18968Y32045D01*
X18974Y32037D01*
X18826Y31888D01*
X18780Y31908D01*
Y32697D01*
X17913D01*
Y32364D01*
X16872D01*
X16813Y32423D01*
Y32679D01*
X16831Y32690D01*
X16862Y32696D01*
X16865Y32691D01*
X16894Y32672D01*
X16929Y32665D01*
X17057D01*
Y32451D01*
X17707D01*
Y33031D01*
X17707Y33041D01*
Y33061D01*
Y33081D01*
X17707Y33091D01*
Y33671D01*
X17057D01*
Y33664D01*
X16417D01*
X16413Y33663D01*
X16309D01*
X16274Y33656D01*
X16245Y33637D01*
X16226Y33607D01*
X16219Y33573D01*
X16226Y33538D01*
X16245Y33509D01*
X16255Y33503D01*
Y33446D01*
X16245Y33440D01*
X16226Y33411D01*
X16219Y33376D01*
X16226Y33341D01*
X16245Y33312D01*
X16255Y33306D01*
Y33249D01*
X16245Y33243D01*
X16226Y33214D01*
X16219Y33179D01*
X16226Y33145D01*
X16245Y33115D01*
X16255Y33109D01*
Y33053D01*
X16245Y33046D01*
X16226Y33017D01*
X16219Y32982D01*
X16226Y32948D01*
X16245Y32918D01*
X16274Y32899D01*
X16309Y32892D01*
X16366D01*
X16612Y32645D01*
Y32588D01*
X16566Y32569D01*
X16452Y32683D01*
X16423Y32702D01*
X16388Y32709D01*
X16143D01*
Y32726D01*
X16137Y32761D01*
X16117Y32790D01*
X16088Y32810D01*
X16053Y32817D01*
X16019Y32810D01*
X15989Y32790D01*
X15983Y32781D01*
X15927D01*
X15920Y32790D01*
X15891Y32810D01*
X15856Y32817D01*
X15822Y32810D01*
X15792Y32790D01*
X15786Y32781D01*
X15730D01*
X15723Y32790D01*
X15694Y32810D01*
X15659Y32817D01*
X15625Y32810D01*
X15596Y32790D01*
X15589Y32781D01*
X15533D01*
X15526Y32790D01*
X15497Y32810D01*
X15463Y32817D01*
X15428Y32810D01*
X15399Y32790D01*
X15392Y32781D01*
X15336D01*
X15330Y32790D01*
X15300Y32810D01*
X15266Y32817D01*
X15231Y32810D01*
X15202Y32790D01*
X15182Y32761D01*
X15175Y32726D01*
Y32510D01*
X15178Y32498D01*
X15173Y32490D01*
X15138Y32459D01*
X15119Y32462D01*
X15049D01*
X15021Y32490D01*
Y32560D01*
X15015Y32594D01*
X15008Y32604D01*
X14995Y32624D01*
X14994Y32624D01*
X14994Y32625D01*
X14962Y32657D01*
Y32726D01*
X14955Y32761D01*
X14936Y32790D01*
X14907Y32810D01*
X14872Y32817D01*
X14837Y32810D01*
X14808Y32790D01*
X14789Y32761D01*
X14782Y32726D01*
Y32622D01*
X14781Y32618D01*
X14782Y32614D01*
Y32510D01*
X14789Y32475D01*
X14804Y32453D01*
X14788Y32429D01*
X14781Y32394D01*
Y32365D01*
X14101D01*
X14069Y32403D01*
X14069Y32404D01*
X14056Y32469D01*
X14019Y32524D01*
X13964Y32561D01*
X13898Y32574D01*
X13833Y32561D01*
X13778Y32524D01*
X13741Y32469D01*
X13728Y32404D01*
X13741Y32338D01*
X13778Y32283D01*
X13833Y32246D01*
X13898Y32233D01*
X13918Y32237D01*
X13946Y32209D01*
X13975Y32189D01*
X14010Y32183D01*
X14872D01*
X14907Y32189D01*
X14936Y32209D01*
X14956Y32239D01*
X14957Y32244D01*
X14971Y32275D01*
X15012Y32280D01*
X15081D01*
X16331Y31030D01*
X16312Y30984D01*
X16240D01*
Y30593D01*
X16190Y30573D01*
X16083Y30680D01*
Y30984D01*
X15650D01*
Y30962D01*
X15603Y30943D01*
X14860Y31686D01*
X14830Y31706D01*
X14795Y31713D01*
X13386D01*
X13366Y31743D01*
X13311Y31780D01*
X13246Y31793D01*
X13180Y31780D01*
X13125Y31743D01*
X13088Y31687D01*
X13075Y31622D01*
X13088Y31557D01*
X13125Y31501D01*
X13180Y31464D01*
X13246Y31451D01*
X13311Y31464D01*
X13366Y31501D01*
X13386Y31531D01*
X14758D01*
X15585Y30703D01*
X15605Y30690D01*
X15615Y30684D01*
X15650Y30677D01*
Y30551D01*
X15954D01*
X16156Y30349D01*
X16186Y30329D01*
X16220Y30322D01*
X16540D01*
X16561Y30272D01*
X16281Y29993D01*
X14526D01*
X13927Y30591D01*
Y30945D01*
X13435D01*
Y30472D01*
X13788D01*
X14424Y29837D01*
X14453Y29817D01*
X14488Y29810D01*
X16319D01*
X16354Y29817D01*
X16383Y29837D01*
X16700Y30154D01*
X16833D01*
X16867Y30161D01*
X16897Y30181D01*
X17024Y30308D01*
X17037Y30328D01*
X17044Y30338D01*
X17051Y30373D01*
Y30505D01*
X17190Y30644D01*
X17210Y30674D01*
X17217Y30709D01*
Y31061D01*
X17267Y31076D01*
X17287Y31046D01*
X17343Y31009D01*
X17408Y30996D01*
X17473Y31009D01*
X17529Y31046D01*
X17548Y31075D01*
X17911D01*
X17946Y31082D01*
X17976Y31102D01*
X18471Y31597D01*
X18754D01*
X18789Y31604D01*
X18819Y31624D01*
X19101Y31906D01*
X19128Y31885D01*
X19233Y31842D01*
X19346Y31827D01*
X19460Y31842D01*
X19565Y31885D01*
X19655Y31955D01*
X19725Y32045D01*
X19768Y32151D01*
X19783Y32264D01*
X19768Y32377D01*
X19725Y32482D01*
X19655Y32573D01*
X19565Y32642D01*
X19460Y32686D01*
X19447Y32687D01*
Y32691D01*
X19439Y32729D01*
X19417Y32762D01*
X18199Y33981D01*
Y34291D01*
D02*
G37*
G36*
X27165Y34751D02*
X27064Y34738D01*
X26969Y34699D01*
X26888Y34636D01*
X26825Y34555D01*
X26786Y34460D01*
X26773Y34358D01*
X26786Y34257D01*
X26825Y34162D01*
X26888Y34081D01*
X26969Y34018D01*
X27064Y33979D01*
X27165Y33966D01*
X27267Y33979D01*
X27343Y34011D01*
X28975Y32379D01*
Y31659D01*
X28925Y31644D01*
X28917Y31656D01*
X27499Y33074D01*
X27505Y33082D01*
X27545Y33177D01*
X27558Y33278D01*
X27545Y33380D01*
X27505Y33475D01*
X27443Y33556D01*
X27362Y33619D01*
X27267Y33658D01*
X27165Y33671D01*
X27064Y33658D01*
X26969Y33619D01*
X26888Y33556D01*
X26825Y33475D01*
X26786Y33380D01*
X26773Y33278D01*
X26786Y33177D01*
X26825Y33082D01*
X26888Y33001D01*
X26969Y32938D01*
X27064Y32899D01*
X27165Y32886D01*
X27267Y32899D01*
X27362Y32938D01*
X27370Y32945D01*
X28761Y31554D01*
Y30605D01*
X28711Y30602D01*
X28700Y30712D01*
X28644Y30899D01*
X28552Y31071D01*
X28428Y31221D01*
X28278Y31345D01*
X28106Y31437D01*
X27919Y31493D01*
X27725Y31513D01*
X27531Y31493D01*
X27345Y31437D01*
X27173Y31345D01*
X27022Y31221D01*
X26899Y31071D01*
X26807Y30899D01*
X26750Y30712D01*
X26731Y30518D01*
X26750Y30324D01*
X26807Y30138D01*
X26899Y29966D01*
X27022Y29815D01*
X27173Y29692D01*
X27345Y29600D01*
X27531Y29543D01*
X27725Y29524D01*
X27919Y29543D01*
X28106Y29600D01*
X28278Y29692D01*
X28428Y29815D01*
X28552Y29966D01*
X28644Y30138D01*
X28700Y30324D01*
X28711Y30434D01*
X28761Y30432D01*
Y29726D01*
X28073Y29037D01*
X26592D01*
X26557Y29030D01*
X26527Y29011D01*
X25818Y28301D01*
X24671D01*
X24668Y28351D01*
X24715Y28358D01*
X24821Y28401D01*
X24911Y28471D01*
X24981Y28561D01*
X25024Y28666D01*
X25039Y28780D01*
X25024Y28893D01*
X24981Y28998D01*
X24911Y29088D01*
X24821Y29158D01*
X24715Y29201D01*
X24602Y29216D01*
X24489Y29201D01*
X24384Y29158D01*
X24293Y29088D01*
X24224Y28998D01*
X24180Y28893D01*
X24166Y28780D01*
X24180Y28666D01*
X24224Y28561D01*
X24293Y28471D01*
X24384Y28401D01*
X24489Y28358D01*
X24537Y28351D01*
X24533Y28301D01*
X24047D01*
X24047Y28301D01*
X24035Y28346D01*
X24035Y28351D01*
Y29213D01*
X23169D01*
Y28351D01*
X23169Y28346D01*
X23157Y28301D01*
X22646D01*
X21266Y29681D01*
X21298Y29759D01*
X21310Y29846D01*
X21298Y29934D01*
X21265Y30015D01*
X21211Y30085D01*
X21141Y30139D01*
X21060Y30172D01*
X20972Y30184D01*
X20885Y30172D01*
X20804Y30139D01*
X20734Y30085D01*
X20680Y30015D01*
X20646Y29934D01*
X20635Y29846D01*
X20646Y29759D01*
X20680Y29678D01*
X20734Y29608D01*
X20804Y29554D01*
X20885Y29520D01*
X20972Y29509D01*
X21060Y29520D01*
X21137Y29553D01*
X22544Y28146D01*
X22574Y28126D01*
X22609Y28119D01*
X25856D01*
X25891Y28126D01*
X25920Y28146D01*
X26629Y28855D01*
X28110D01*
X28145Y28862D01*
X28175Y28882D01*
X28917Y29624D01*
X28925Y29636D01*
X28975Y29621D01*
Y28449D01*
X28237Y27711D01*
X28193Y27738D01*
X28219Y27822D01*
X28232Y27953D01*
X28219Y28084D01*
X28180Y28210D01*
X28118Y28326D01*
X28035Y28428D01*
X27933Y28512D01*
X27816Y28574D01*
X27690Y28612D01*
X27559Y28625D01*
X27428Y28612D01*
X27302Y28574D01*
X27185Y28512D01*
X27084Y28428D01*
X27000Y28326D01*
X26938Y28210D01*
X26899Y28084D01*
X26887Y27953D01*
X26899Y27822D01*
X26938Y27695D01*
X27000Y27579D01*
X27084Y27477D01*
X27185Y27394D01*
X27302Y27331D01*
X27428Y27293D01*
X27559Y27280D01*
X27690Y27293D01*
X27774Y27319D01*
X27801Y27274D01*
X27650Y27124D01*
X24835D01*
X24825Y27174D01*
X24840Y27181D01*
X24931Y27250D01*
X25000Y27341D01*
X25044Y27446D01*
X25059Y27559D01*
X25044Y27672D01*
X25000Y27777D01*
X24931Y27868D01*
X24840Y27937D01*
X24735Y27981D01*
X24622Y27996D01*
X24509Y27981D01*
X24404Y27937D01*
X24313Y27868D01*
X24244Y27777D01*
X24200Y27672D01*
X24185Y27559D01*
X24200Y27446D01*
X24244Y27341D01*
X24313Y27250D01*
X24404Y27181D01*
X24420Y27174D01*
X24410Y27124D01*
X24104D01*
X24055Y27126D01*
X24055Y27174D01*
Y27992D01*
X23189D01*
Y27174D01*
X23189Y27126D01*
X23140Y27124D01*
X22824D01*
X20266Y29681D01*
X20298Y29759D01*
X20310Y29846D01*
X20298Y29934D01*
X20265Y30015D01*
X20211Y30085D01*
X20141Y30139D01*
X20060Y30172D01*
X19972Y30184D01*
X19885Y30172D01*
X19804Y30139D01*
X19734Y30085D01*
X19680Y30015D01*
X19646Y29934D01*
X19635Y29846D01*
X19646Y29759D01*
X19680Y29678D01*
X19734Y29608D01*
X19804Y29554D01*
X19885Y29520D01*
X19972Y29509D01*
X20060Y29520D01*
X20137Y29553D01*
X22721Y26969D01*
X22751Y26949D01*
X22786Y26942D01*
X27688D01*
X27723Y26949D01*
X27753Y26969D01*
X29131Y28347D01*
X29150Y28376D01*
X29157Y28411D01*
Y32416D01*
X29150Y32451D01*
X29131Y32481D01*
X28229Y33383D01*
X28252Y33430D01*
X28285Y33426D01*
X28387Y33439D01*
X28482Y33478D01*
X28563Y33541D01*
X28625Y33622D01*
X28665Y33717D01*
X28678Y33818D01*
X28665Y33920D01*
X28625Y34015D01*
X28563Y34096D01*
X28482Y34159D01*
X28387Y34198D01*
X28285Y34211D01*
X28184Y34198D01*
X28089Y34159D01*
X28008Y34096D01*
X27945Y34015D01*
X27906Y33920D01*
X27893Y33818D01*
X27897Y33785D01*
X27850Y33762D01*
X27481Y34130D01*
X27505Y34162D01*
X27545Y34257D01*
X27558Y34358D01*
X27545Y34460D01*
X27505Y34555D01*
X27443Y34636D01*
X27362Y34699D01*
X27267Y34738D01*
X27165Y34751D01*
D02*
G37*
G36*
X22307Y30181D02*
X21638D01*
Y29512D01*
X22307D01*
Y30181D01*
D02*
G37*
G36*
X14311Y34403D02*
X13937D01*
X13907Y34390D01*
X13894Y34360D01*
Y34006D01*
X13891Y34000D01*
X12748D01*
X12713Y33993D01*
X12683Y33973D01*
X12155Y33445D01*
X11870D01*
Y33012D01*
X12264D01*
Y33296D01*
X12785Y33818D01*
X13965D01*
X13984Y33772D01*
X13935Y33723D01*
X13874Y33711D01*
X13819Y33674D01*
X13782Y33618D01*
X13775Y33587D01*
X13764Y33553D01*
X13721Y33550D01*
X13555D01*
X13536Y33580D01*
X13480Y33617D01*
X13415Y33630D01*
X13350Y33617D01*
X13294Y33580D01*
X13257Y33524D01*
X13244Y33459D01*
X13257Y33394D01*
X13294Y33338D01*
X13350Y33301D01*
X13415Y33288D01*
X13480Y33301D01*
X13536Y33338D01*
X13555Y33368D01*
X13688D01*
X13699Y33358D01*
X13699Y33358D01*
X13759Y33297D01*
X13881Y33175D01*
X13881Y33175D01*
X13924Y33133D01*
X13903Y33083D01*
X13714D01*
X13675Y33075D01*
X13643Y33053D01*
X13243Y32654D01*
X13221Y32621D01*
X13214Y32583D01*
Y32164D01*
X13221Y32125D01*
X13243Y32093D01*
X13421Y31915D01*
X13443Y31901D01*
X13453Y31894D01*
X13492Y31886D01*
X14846D01*
X15592Y31140D01*
X15614Y31125D01*
X15625Y31118D01*
X15663Y31110D01*
X15702D01*
X15716Y31090D01*
X15771Y31053D01*
X15837Y31040D01*
X15902Y31053D01*
X15957Y31090D01*
X15994Y31145D01*
X16007Y31211D01*
X15994Y31276D01*
X15957Y31331D01*
X15902Y31368D01*
X15837Y31381D01*
X15771Y31368D01*
X15716Y31331D01*
X15687Y31328D01*
X14959Y32057D01*
X14926Y32079D01*
X14888Y32087D01*
X13533D01*
X13415Y32205D01*
Y32541D01*
X13755Y32882D01*
X14508D01*
X14546Y32890D01*
X14550Y32892D01*
X14616D01*
X14651Y32899D01*
X14680Y32918D01*
X14700Y32948D01*
X14706Y32982D01*
X14700Y33017D01*
X14680Y33046D01*
X14670Y33053D01*
Y33109D01*
X14680Y33115D01*
X14700Y33145D01*
X14706Y33179D01*
X14700Y33214D01*
X14680Y33243D01*
X14670Y33249D01*
Y33306D01*
X14680Y33312D01*
X14700Y33341D01*
X14706Y33376D01*
X14700Y33411D01*
X14680Y33440D01*
X14651Y33459D01*
X14616Y33466D01*
X14400D01*
X14365Y33459D01*
X14336Y33440D01*
X14316Y33411D01*
X14309Y33376D01*
X14316Y33341D01*
X14330Y33320D01*
X14321Y33290D01*
X14308Y33270D01*
X14044D01*
X14010Y33304D01*
X13975Y33339D01*
X13992Y33393D01*
X14005Y33396D01*
X14060Y33433D01*
X14097Y33488D01*
X14110Y33553D01*
X14097Y33618D01*
X14093Y33624D01*
X14148Y33679D01*
X14508D01*
X14512Y33679D01*
X14616D01*
X14651Y33686D01*
X14680Y33706D01*
X14700Y33735D01*
X14706Y33770D01*
X14700Y33804D01*
X14680Y33834D01*
X14670Y33840D01*
Y33896D01*
X14680Y33903D01*
X14700Y33932D01*
X14706Y33967D01*
X14700Y34001D01*
X14699Y34002D01*
X14676Y34045D01*
X14688Y34075D01*
Y34112D01*
X14700Y34129D01*
X14706Y34163D01*
X14700Y34198D01*
X14688Y34215D01*
Y34252D01*
X14676Y34282D01*
X14646Y34295D01*
X14354D01*
Y34360D01*
X14341Y34390D01*
X14311Y34403D01*
D02*
G37*
G36*
X24583Y30417D02*
X24470Y30402D01*
X24364Y30359D01*
X24274Y30289D01*
X24204Y30199D01*
X24161Y30093D01*
X24146Y29980D01*
X24161Y29867D01*
X24204Y29762D01*
X24274Y29671D01*
X24364Y29602D01*
X24470Y29558D01*
X24583Y29544D01*
X24696Y29558D01*
X24801Y29602D01*
X24892Y29671D01*
X24961Y29762D01*
X25005Y29867D01*
X25019Y29980D01*
X25005Y30093D01*
X24961Y30199D01*
X24892Y30289D01*
X24801Y30359D01*
X24696Y30402D01*
X24583Y30417D01*
D02*
G37*
G36*
X6583Y36337D02*
X6511Y36328D01*
X6444Y36300D01*
X6386Y36256D01*
X6342Y36198D01*
X6314Y36131D01*
X6305Y36059D01*
X6314Y35987D01*
X6342Y35920D01*
X6386Y35863D01*
X6444Y35818D01*
X6511Y35791D01*
X6583Y35781D01*
X6655Y35791D01*
X6722Y35818D01*
X6779Y35863D01*
X6823Y35920D01*
X6851Y35987D01*
X6861Y36059D01*
X6851Y36131D01*
X6823Y36198D01*
X6779Y36256D01*
X6722Y36300D01*
X6655Y36328D01*
X6583Y36337D01*
D02*
G37*
G36*
X17472Y42075D02*
X17384Y42063D01*
X17301Y42029D01*
X17230Y41974D01*
X17176Y41903D01*
X17142Y41821D01*
X17130Y41732D01*
X17142Y41644D01*
X17176Y41561D01*
X17230Y41490D01*
X17301Y41436D01*
X17384Y41402D01*
X17472Y41390D01*
X17561Y41402D01*
X17644Y41436D01*
X17714Y41490D01*
X17769Y41561D01*
X17803Y41644D01*
X17815Y41732D01*
X17803Y41821D01*
X17769Y41903D01*
X17714Y41974D01*
X17644Y42029D01*
X17561Y42063D01*
X17472Y42075D01*
D02*
G37*
G36*
X19472D02*
X19384Y42063D01*
X19301Y42029D01*
X19230Y41974D01*
X19176Y41903D01*
X19142Y41821D01*
X19130Y41732D01*
X19142Y41644D01*
X19176Y41561D01*
X19230Y41490D01*
X19301Y41436D01*
X19384Y41402D01*
X19472Y41390D01*
X19561Y41402D01*
X19644Y41436D01*
X19714Y41490D01*
X19769Y41561D01*
X19803Y41644D01*
X19815Y41732D01*
X19803Y41821D01*
X19769Y41903D01*
X19714Y41974D01*
X19644Y42029D01*
X19561Y42063D01*
X19472Y42075D01*
D02*
G37*
G36*
X14447Y44581D02*
X14321Y44564D01*
X14204Y44516D01*
X14103Y44438D01*
X14026Y44338D01*
X13977Y44220D01*
X13960Y44094D01*
Y43821D01*
X13960Y43821D01*
X13977Y43695D01*
X14026Y43578D01*
X14103Y43477D01*
X15010Y42569D01*
X15010Y42569D01*
X15111Y42492D01*
X15228Y42444D01*
X15354Y42427D01*
X15354Y42427D01*
X17909D01*
X17986Y42350D01*
Y41732D01*
X18003Y41606D01*
X18051Y41489D01*
X18128Y41388D01*
X18229Y41311D01*
X18347Y41262D01*
X18472Y41246D01*
X18598Y41262D01*
X18716Y41311D01*
X18816Y41388D01*
X18894Y41489D01*
X18942Y41606D01*
X18959Y41732D01*
Y42551D01*
X18942Y42677D01*
X18894Y42794D01*
X18816Y42895D01*
X18816Y42895D01*
X18454Y43257D01*
X18353Y43335D01*
X18236Y43383D01*
X18110Y43400D01*
X18110Y43400D01*
X15556D01*
X14933Y44022D01*
Y44094D01*
X14917Y44220D01*
X14868Y44338D01*
X14791Y44438D01*
X14690Y44516D01*
X14573Y44564D01*
X14447Y44581D01*
D02*
G37*
G36*
X16472Y42075D02*
X16384Y42063D01*
X16301Y42029D01*
X16230Y41974D01*
X16176Y41903D01*
X16142Y41821D01*
X16130Y41732D01*
X16142Y41644D01*
X16176Y41561D01*
X16230Y41490D01*
X16301Y41436D01*
X16384Y41402D01*
X16472Y41390D01*
X16561Y41402D01*
X16644Y41436D01*
X16714Y41490D01*
X16769Y41561D01*
X16803Y41644D01*
X16815Y41732D01*
X16803Y41821D01*
X16769Y41903D01*
X16714Y41974D01*
X16644Y42029D01*
X16561Y42063D01*
X16472Y42075D01*
D02*
G37*
G36*
X5906Y43586D02*
X5774Y43573D01*
X5648Y43535D01*
X5532Y43473D01*
X5430Y43389D01*
X5346Y43287D01*
X5284Y43171D01*
X5246Y43045D01*
X5233Y42913D01*
X5246Y42782D01*
X5284Y42656D01*
X5346Y42540D01*
X5430Y42438D01*
X5532Y42354D01*
X5648Y42292D01*
X5774Y42254D01*
X5906Y42241D01*
X6037Y42254D01*
X6163Y42292D01*
X6279Y42354D01*
X6381Y42438D01*
X6465Y42540D01*
X6527Y42656D01*
X6565Y42782D01*
X6578Y42913D01*
X6565Y43045D01*
X6527Y43171D01*
X6465Y43287D01*
X6381Y43389D01*
X6279Y43473D01*
X6163Y43535D01*
X6037Y43573D01*
X5906Y43586D01*
D02*
G37*
G36*
X17447Y44538D02*
X17332Y44523D01*
X17225Y44478D01*
X17134Y44408D01*
X17063Y44316D01*
X17019Y44209D01*
X17004Y44094D01*
X17019Y43980D01*
X17063Y43873D01*
X17134Y43781D01*
X17225Y43711D01*
X17332Y43666D01*
X17447Y43651D01*
X17562Y43666D01*
X17668Y43711D01*
X17760Y43781D01*
X17831Y43873D01*
X17875Y43980D01*
X17890Y44094D01*
X17875Y44209D01*
X17831Y44316D01*
X17760Y44408D01*
X17668Y44478D01*
X17562Y44523D01*
X17447Y44538D01*
D02*
G37*
G36*
X19386Y44534D02*
X18507D01*
Y43655D01*
X19386D01*
Y44534D01*
D02*
G37*
G36*
X27559Y43586D02*
X27428Y43573D01*
X27302Y43535D01*
X27185Y43473D01*
X27084Y43389D01*
X27000Y43287D01*
X26938Y43171D01*
X26899Y43045D01*
X26887Y42913D01*
X26899Y42782D01*
X26938Y42656D01*
X27000Y42540D01*
X27084Y42438D01*
X27185Y42354D01*
X27302Y42292D01*
X27428Y42254D01*
X27559Y42241D01*
X27690Y42254D01*
X27816Y42292D01*
X27933Y42354D01*
X28035Y42438D01*
X28118Y42540D01*
X28180Y42656D01*
X28219Y42782D01*
X28232Y42913D01*
X28219Y43045D01*
X28180Y43171D01*
X28118Y43287D01*
X28035Y43389D01*
X27933Y43473D01*
X27816Y43535D01*
X27690Y43573D01*
X27559Y43586D01*
D02*
G37*
G36*
X15947Y44538D02*
X15832Y44523D01*
X15725Y44478D01*
X15633Y44408D01*
X15563Y44316D01*
X15519Y44209D01*
X15504Y44094D01*
X15519Y43980D01*
X15563Y43873D01*
X15633Y43781D01*
X15725Y43711D01*
X15832Y43666D01*
X15947Y43651D01*
X16062Y43666D01*
X16168Y43711D01*
X16260Y43781D01*
X16331Y43873D01*
X16375Y43980D01*
X16390Y44094D01*
X16375Y44209D01*
X16331Y44316D01*
X16260Y44408D01*
X16168Y44478D01*
X16062Y44523D01*
X15947Y44538D01*
D02*
G37*
G36*
X14472Y37075D02*
X14384Y37063D01*
X14301Y37029D01*
X14230Y36974D01*
X14176Y36903D01*
X14142Y36821D01*
X14130Y36732D01*
X14142Y36644D01*
X14176Y36561D01*
X14230Y36490D01*
X14301Y36436D01*
X14384Y36402D01*
X14472Y36390D01*
X14561Y36402D01*
X14644Y36436D01*
X14714Y36490D01*
X14769Y36561D01*
X14803Y36644D01*
X14815Y36732D01*
X14803Y36821D01*
X14769Y36903D01*
X14714Y36974D01*
X14644Y37029D01*
X14561Y37063D01*
X14472Y37075D01*
D02*
G37*
G36*
X6583Y37136D02*
X6511Y37127D01*
X6444Y37099D01*
X6386Y37055D01*
X6342Y36997D01*
X6314Y36930D01*
X6305Y36858D01*
X6314Y36786D01*
X6342Y36719D01*
X6386Y36662D01*
X6444Y36618D01*
X6511Y36590D01*
X6583Y36580D01*
X6655Y36590D01*
X6722Y36618D01*
X6779Y36662D01*
X6823Y36719D01*
X6851Y36786D01*
X6861Y36858D01*
X6851Y36930D01*
X6823Y36997D01*
X6779Y37055D01*
X6722Y37099D01*
X6655Y37127D01*
X6583Y37136D01*
D02*
G37*
G36*
X28285Y37451D02*
X28184Y37438D01*
X28089Y37399D01*
X28008Y37336D01*
X27945Y37255D01*
X27906Y37160D01*
X27893Y37058D01*
X27906Y36957D01*
X27945Y36862D01*
X28008Y36781D01*
X28089Y36718D01*
X28184Y36679D01*
X28285Y36666D01*
X28387Y36679D01*
X28482Y36718D01*
X28563Y36781D01*
X28625Y36862D01*
X28665Y36957D01*
X28678Y37058D01*
X28665Y37160D01*
X28625Y37255D01*
X28563Y37336D01*
X28482Y37399D01*
X28387Y37438D01*
X28285Y37451D01*
D02*
G37*
G36*
X27165Y36911D02*
X27064Y36898D01*
X26969Y36859D01*
X26888Y36796D01*
X26825Y36715D01*
X26786Y36620D01*
X26773Y36518D01*
X26786Y36417D01*
X26825Y36322D01*
X26888Y36241D01*
X26969Y36178D01*
X27064Y36139D01*
X27165Y36126D01*
X27267Y36139D01*
X27362Y36178D01*
X27443Y36241D01*
X27505Y36322D01*
X27545Y36417D01*
X27558Y36518D01*
X27545Y36620D01*
X27505Y36715D01*
X27443Y36796D01*
X27362Y36859D01*
X27267Y36898D01*
X27165Y36911D01*
D02*
G37*
G36*
X5882Y36735D02*
X5810Y36725D01*
X5743Y36697D01*
X5685Y36653D01*
X5641Y36596D01*
X5613Y36529D01*
X5604Y36457D01*
X5613Y36385D01*
X5641Y36318D01*
X5685Y36260D01*
X5743Y36216D01*
X5810Y36188D01*
X5882Y36179D01*
X5954Y36188D01*
X6021Y36216D01*
X6078Y36260D01*
X6123Y36318D01*
X6150Y36385D01*
X6160Y36457D01*
X6150Y36529D01*
X6123Y36596D01*
X6078Y36653D01*
X6021Y36697D01*
X5954Y36725D01*
X5882Y36735D01*
D02*
G37*
G36*
X13472Y37075D02*
X13384Y37063D01*
X13301Y37029D01*
X13230Y36974D01*
X13176Y36903D01*
X13142Y36821D01*
X13130Y36732D01*
X13142Y36644D01*
X13176Y36561D01*
X13230Y36490D01*
X13301Y36436D01*
X13384Y36402D01*
X13472Y36390D01*
X13561Y36402D01*
X13644Y36436D01*
X13714Y36490D01*
X13769Y36561D01*
X13803Y36644D01*
X13815Y36732D01*
X13803Y36821D01*
X13769Y36903D01*
X13714Y36974D01*
X13644Y37029D01*
X13561Y37063D01*
X13472Y37075D01*
D02*
G37*
G36*
X27725Y41353D02*
X27531Y41333D01*
X27345Y41277D01*
X27173Y41185D01*
X27022Y41061D01*
X26899Y40911D01*
X26807Y40739D01*
X26750Y40552D01*
X26731Y40358D01*
X26750Y40164D01*
X26807Y39978D01*
X26899Y39806D01*
X27022Y39655D01*
X27173Y39532D01*
X27345Y39440D01*
X27531Y39383D01*
X27725Y39364D01*
X27919Y39383D01*
X28106Y39440D01*
X28278Y39532D01*
X28428Y39655D01*
X28552Y39806D01*
X28644Y39978D01*
X28700Y40164D01*
X28720Y40358D01*
X28700Y40552D01*
X28644Y40739D01*
X28552Y40911D01*
X28428Y41061D01*
X28278Y41185D01*
X28106Y41277D01*
X27919Y41333D01*
X27725Y41353D01*
D02*
G37*
G36*
X4882Y38643D02*
X4749Y38630D01*
X4621Y38591D01*
X4503Y38528D01*
X4399Y38443D01*
X4314Y38340D01*
X4251Y38222D01*
X4212Y38094D01*
X4199Y37961D01*
X4212Y37827D01*
X4251Y37699D01*
X4314Y37581D01*
X4399Y37478D01*
X4503Y37393D01*
X4621Y37330D01*
X4749Y37291D01*
X4882Y37278D01*
X5015Y37291D01*
X5143Y37330D01*
X5261Y37393D01*
X5365Y37478D01*
X5449Y37581D01*
X5513Y37699D01*
X5551Y37827D01*
X5565Y37961D01*
X5551Y38094D01*
X5513Y38222D01*
X5449Y38340D01*
X5365Y38443D01*
X5261Y38528D01*
X5143Y38591D01*
X5015Y38630D01*
X4882Y38643D01*
D02*
G37*
G36*
X27340Y37992D02*
X26990D01*
X26907Y37975D01*
X26836Y37928D01*
X26788Y37857D01*
X26772Y37773D01*
Y37423D01*
X26788Y37340D01*
X26836Y37269D01*
X26907Y37221D01*
X26990Y37205D01*
X27340D01*
X27424Y37221D01*
X27495Y37269D01*
X27542Y37340D01*
X27559Y37423D01*
Y37773D01*
X27542Y37857D01*
X27495Y37928D01*
X27424Y37975D01*
X27340Y37992D01*
D02*
G37*
%LPD*%
G36*
X16473Y32404D02*
Y32320D01*
X16480Y32286D01*
X16500Y32256D01*
X16694Y32062D01*
X16669Y32016D01*
X16644Y32021D01*
X16578Y32008D01*
X16523Y31971D01*
X16503Y31942D01*
X16278D01*
X15947Y32272D01*
Y32419D01*
X15967Y32431D01*
X15997Y32441D01*
X16019Y32426D01*
X16053Y32420D01*
X16088Y32426D01*
X16117Y32446D01*
X16137Y32475D01*
X16143Y32510D01*
Y32527D01*
X16350D01*
X16473Y32404D01*
D02*
G37*
G36*
X15399Y32446D02*
X15428Y32426D01*
X15463Y32420D01*
X15497Y32426D01*
X15518Y32441D01*
X15549Y32431D01*
X15568Y32419D01*
Y32234D01*
X15575Y32199D01*
X15595Y32170D01*
X16372Y31392D01*
X16392Y31379D01*
X16402Y31373D01*
X16437Y31366D01*
X16505D01*
X16520Y31343D01*
X16572Y31308D01*
X16634Y31296D01*
X16695Y31308D01*
X16747Y31343D01*
X16782Y31395D01*
X16794Y31457D01*
X16782Y31518D01*
X16747Y31570D01*
X16695Y31605D01*
X16634Y31617D01*
X16572Y31605D01*
X16520Y31570D01*
X16517Y31566D01*
X16461Y31561D01*
X16309Y31713D01*
X16328Y31759D01*
X16503D01*
X16523Y31730D01*
X16578Y31693D01*
X16644Y31680D01*
X16709Y31693D01*
X16764Y31730D01*
X16801Y31785D01*
X16814Y31850D01*
X16801Y31916D01*
X16764Y31971D01*
X16771Y32020D01*
X16775Y32024D01*
X16853D01*
X17035Y31842D01*
Y30932D01*
X17010Y30919D01*
X16985Y30912D01*
X16935Y30945D01*
X16870Y30958D01*
X16805Y30945D01*
X16749Y30908D01*
X16742Y30896D01*
X16694Y30895D01*
X16673Y30939D01*
Y30984D01*
X16635D01*
X15247Y32372D01*
X15260Y32406D01*
X15269Y32420D01*
X15300Y32426D01*
X15330Y32446D01*
X15336Y32456D01*
X15392D01*
X15399Y32446D01*
D02*
G37*
G36*
X17913Y31831D02*
X18644D01*
X18671Y31781D01*
X18670Y31779D01*
X18433D01*
X18398Y31772D01*
X18369Y31753D01*
X17874Y31258D01*
X17548D01*
X17529Y31287D01*
X17473Y31324D01*
X17408Y31337D01*
X17343Y31324D01*
X17287Y31287D01*
X17267Y31257D01*
X17217Y31272D01*
Y31880D01*
X17210Y31915D01*
X17190Y31944D01*
X17018Y32117D01*
X17037Y32163D01*
X17913D01*
Y31831D01*
D02*
G37*
D14*
X13681Y30709D02*
D03*
X13091D02*
D03*
D16*
X17006Y34809D02*
G03*
X16988Y34814I-10J0D01*
G01*
D02*
G03*
X16991Y34800I8J-5D01*
G01*
D02*
G03*
X16996Y34799I5J8D01*
G01*
D02*
G03*
X17006Y34809I0J10D01*
G01*
X17073Y34800D02*
G03*
X17015Y34879I-82J0D01*
G01*
D02*
G03*
X16996Y34718I-24J-79D01*
G01*
D02*
G03*
X17058Y34753I-5J82D01*
G01*
D02*
G03*
X17073Y34800I-67J47D01*
G01*
X17015Y34879D02*
G03*
X16988Y34814I42J-56D01*
G01*
D02*
G03*
X16991Y34800I70J9D01*
G01*
D02*
G03*
X16996Y34789I66J23D01*
G01*
D02*
G03*
X17058Y34753I61J34D01*
G01*
X17128Y34823D02*
G03*
X17015Y34879I-70J0D01*
G01*
X17058Y34753D02*
G03*
X17128Y34823I-1J70D01*
G01*
X25254Y35928D02*
X25304Y35978D01*
X13723Y39120D02*
X15522Y37321D01*
X13723Y39120D02*
X13735Y39108D01*
X15522Y37321D02*
X19883D01*
X15480Y37166D02*
X19039D01*
X27165Y33278D02*
X28852Y31591D01*
Y29688D02*
Y31591D01*
X28110Y28946D02*
X28852Y29688D01*
X26592Y28946D02*
X28110D01*
X25856Y28210D02*
X26592Y28946D01*
X22609Y28210D02*
X25856D01*
X27165Y34317D02*
Y34358D01*
Y34317D02*
X29066Y32416D01*
Y28411D02*
Y32416D01*
X27688Y27033D02*
X29066Y28411D01*
X22786Y27033D02*
X27688D01*
X19972Y29846D02*
X22786Y27033D01*
X20972Y29846D02*
X22609Y28210D01*
X13824Y33361D02*
X13945Y33240D01*
X14111Y33770D02*
X14508D01*
X14006Y33179D02*
X14508D01*
X8465Y35138D02*
X10837D01*
X11132Y35433D01*
X16516Y30787D02*
X16870D01*
X14508Y33573D02*
X15030D01*
X15463Y34006D02*
X15502Y33967D01*
X15030Y33152D02*
X15069Y33191D01*
X15030Y33140D02*
Y33152D01*
X15069Y32618D02*
Y33191D01*
X11811Y38976D02*
Y38976D01*
X11811Y38780D02*
X11811Y38976D01*
X11683Y36614D02*
X12974D01*
X14862Y35118D02*
X14872D01*
X15463Y33573D02*
X15659Y33770D01*
X15450Y33573D02*
X15463D01*
X15030D02*
X15450D01*
X15502Y33967D02*
X16417D01*
X15659Y33770D02*
X16417D01*
X15866Y30768D02*
X16220Y30413D01*
X10157Y40551D02*
X10433D01*
X10118Y38976D02*
X10433D01*
X6583Y34575D02*
X7016D01*
X8169Y35728D01*
X8465D01*
X15856Y32234D02*
Y32618D01*
X5039Y31968D02*
X5041Y31966D01*
X16417Y33573D02*
X17077D01*
X17146Y33504D01*
Y33346D02*
Y33504D01*
X16929Y32756D02*
X17264D01*
X16417Y33179D02*
X16585D01*
X16417Y34163D02*
X16582D01*
X16996Y34577D01*
Y34718D01*
Y34789D01*
Y34799D01*
X19039Y37166D02*
X19472Y36732D01*
X19883Y37321D02*
X20472Y36732D01*
X14010Y32274D02*
X14872D01*
X13898Y32385D02*
X14010Y32274D01*
X13898Y32385D02*
Y32404D01*
X13415Y33459D02*
X13726D01*
X13763Y33422D01*
X9395Y29078D02*
Y31426D01*
X8723Y31456D02*
X8733Y31446D01*
X16996Y34799D02*
Y34809D01*
X14862Y35118D02*
X14872Y35108D01*
X19330Y32264D02*
X19346D01*
X18754Y31688D02*
X19330Y32264D01*
X18433Y31688D02*
X18754D01*
X17408Y31167D02*
X17911D01*
X18433Y31688D01*
X14450Y33909D02*
X14508Y33967D01*
X12748Y33909D02*
X14450D01*
X12067Y33228D02*
X12748Y33909D01*
X16437Y31457D02*
X16634D01*
X15659Y32234D02*
Y32618D01*
Y32234D02*
X16437Y31457D01*
X13572Y39272D02*
X13723Y39120D01*
X12943Y39272D02*
X13572D01*
X13081Y39055D02*
X13591D01*
X15480Y37166D01*
X8723Y31456D02*
X9679Y32411D01*
X9754D01*
X9843Y31873D02*
Y31998D01*
X9395Y31426D02*
X9843Y31873D01*
X9117Y28799D02*
X9395Y29078D01*
X8287Y31001D02*
X8733Y31446D01*
X8287Y28465D02*
Y31001D01*
X15717Y35195D02*
X15728Y35207D01*
X14872Y34528D02*
Y35108D01*
X13681Y30709D02*
X14488Y29902D01*
X16319D01*
X16833Y30245D02*
X16960Y30373D01*
Y30543D01*
X17126Y30709D01*
X16319Y29902D02*
X16663Y30245D01*
X16833D01*
X14872Y32618D02*
X14930Y32561D01*
Y32560D02*
Y32561D01*
Y32560D02*
X14930Y32560D01*
Y32452D02*
Y32560D01*
Y32452D02*
X15012Y32371D01*
X15119D01*
X13246Y31622D02*
X14795D01*
X15650Y30768D01*
X15866D01*
X16053Y32618D02*
X16388D01*
X16564Y32442D01*
Y32320D02*
Y32442D01*
Y32320D02*
X16769Y32115D01*
X16891D01*
X17126Y31880D01*
Y30709D02*
Y31880D01*
X15856Y32234D02*
X16240Y31850D01*
X16644D01*
X16929Y32756D02*
Y33001D01*
X16941Y33012D01*
Y33192D01*
X16757Y33376D02*
X16941Y33192D01*
X16417Y33376D02*
X16757D01*
X13945Y33240D02*
X14006Y33179D01*
X13763Y33422D02*
X13763D01*
X13824Y33361D01*
X13925Y33584D02*
X14111Y33770D01*
X13925Y33584D02*
X13939Y33570D01*
Y33553D02*
Y33570D01*
X16743Y30413D02*
Y30463D01*
X16220Y30413D02*
X16743D01*
X15119Y32371D02*
X16590Y30901D01*
X16496Y30807D02*
X16590Y30901D01*
X16496Y30807D02*
X16516Y30787D01*
X12589Y34656D02*
X14567D01*
X12087Y34154D02*
X12589Y34656D01*
X15069Y34606D02*
Y35256D01*
X15856Y34528D02*
Y34783D01*
X16053Y34980D01*
X14872Y32274D02*
Y32394D01*
X14930Y32452D01*
X17972Y34783D02*
Y35000D01*
X18186Y35214D01*
Y35448D01*
X18096Y35666D02*
X18276D01*
X19027Y34915D01*
X17962Y35531D02*
X18096Y35666D01*
X17313Y35531D02*
X17962D01*
X19027Y33611D02*
Y34915D01*
D17*
X24845Y39215D02*
Y41255D01*
X23326Y40011D02*
Y41276D01*
D18*
X10118Y38976D02*
Y40669D01*
X8479Y42309D02*
X10118Y40669D01*
X8479Y42309D02*
Y43613D01*
D19*
X18110Y42913D02*
X18472Y42551D01*
Y41732D02*
Y42551D01*
X14447Y43821D02*
Y44094D01*
Y43821D02*
X15354Y42913D01*
X18110D01*
X15472Y38741D02*
Y41732D01*
Y38741D02*
X15990Y38224D01*
X22387D01*
D20*
X13314Y32164D02*
X13492Y31986D01*
X14888D01*
X5398Y34375D02*
X5882Y34858D01*
X5398Y33716D02*
Y34375D01*
Y33716D02*
X5748Y33366D01*
X5752Y35260D02*
X6583D01*
X5041Y27695D02*
Y31966D01*
Y27695D02*
X5890Y26846D01*
X18972D01*
X5039Y31968D02*
X5748Y32676D01*
Y33366D01*
X6024Y26378D02*
X19504D01*
X19972Y26846D01*
X16713Y32382D02*
X16831Y32264D01*
X18346D01*
X17982Y34055D02*
X19346Y32691D01*
Y32264D02*
Y32691D01*
X16417Y32982D02*
X16713Y32687D01*
Y32382D02*
Y32687D01*
X21220Y36169D02*
X23338Y38287D01*
X13714Y32982D02*
X14508D01*
X13314Y32583D02*
X13714Y32982D01*
X13314Y32164D02*
Y32583D01*
X16472Y36732D02*
X17035Y36169D01*
X21220D01*
X22802Y35984D02*
X23688Y36870D01*
Y38484D01*
X4088Y28314D02*
X6024Y26378D01*
X4088Y28314D02*
Y33596D01*
X5752Y35260D01*
X17018Y35984D02*
X22802D01*
X16880Y35846D02*
X17018Y35984D01*
X14888Y31986D02*
X15663Y31211D01*
X15837D01*
D21*
X12618Y30709D02*
X13091D01*
X10206Y28372D02*
Y33733D01*
D23*
X25304Y35978D02*
X28285D01*
D34*
X5906Y27953D02*
D03*
X27559Y42913D02*
D03*
X5906D02*
D03*
X27559Y27953D02*
D03*
X19472Y41732D02*
D03*
X18472D02*
D03*
X17472D02*
D03*
X16472D02*
D03*
X15472D02*
D03*
X14472D02*
D03*
X13472D02*
D03*
X19472Y36732D02*
D03*
X18472D02*
D03*
X17472D02*
D03*
X16472D02*
D03*
X15472D02*
D03*
X14472D02*
D03*
X13472D02*
D03*
D35*
X5882Y36457D02*
D03*
X6583Y36059D02*
D03*
X5882Y35657D02*
D03*
X6583Y35260D02*
D03*
Y36858D02*
D03*
X5882Y34858D02*
D03*
X6583Y34461D02*
D03*
X5882Y34063D02*
D03*
D36*
X4882Y37961D02*
D03*
Y32961D02*
D03*
D37*
X18972Y26846D02*
D03*
X19972D02*
D03*
X20972D02*
D03*
X21972D02*
D03*
X18972Y29846D02*
D03*
X19972D02*
D03*
X20972D02*
D03*
D38*
X21972D02*
D03*
D39*
X28285Y37058D02*
D03*
Y35978D02*
D03*
Y34898D02*
D03*
Y33818D02*
D03*
X27165Y36518D02*
D03*
Y35438D02*
D03*
Y34358D02*
D03*
Y33278D02*
D03*
D40*
Y37598D02*
D03*
D41*
X27725Y30518D02*
D03*
Y40358D02*
D03*
D42*
X20472Y41732D02*
D03*
Y36732D02*
D03*
D43*
X24622Y27559D02*
D03*
X24583Y29980D02*
D03*
X24602Y28780D02*
D03*
X19346Y32264D02*
D03*
X17534Y29596D02*
D03*
X8980Y40043D02*
D03*
X12618Y30709D02*
D03*
X22387Y38224D02*
D03*
X18051Y39444D02*
D03*
D44*
X23622Y27559D02*
D03*
X23583Y29980D02*
D03*
X23602Y28780D02*
D03*
X18346Y32264D02*
D03*
D45*
X10447Y43613D02*
D03*
D46*
X8479D02*
D03*
D47*
X14447Y44094D02*
D03*
X15947D02*
D03*
X17447D02*
D03*
D48*
X18947D02*
D03*
D49*
X23326Y41276D02*
D03*
X24845Y41255D02*
D03*
D50*
X10198Y28365D02*
D03*
X19027Y33611D02*
D03*
X12942Y29140D02*
D03*
Y28340D02*
D03*
Y28740D02*
D03*
X16996Y34809D02*
D03*
X13415Y33459D02*
D03*
X13898Y32404D02*
D03*
X13246Y31622D02*
D03*
X16870Y30787D02*
D03*
X17408Y31167D02*
D03*
X14190Y34163D02*
D03*
X23338Y38287D02*
D03*
X23688Y38484D02*
D03*
X9117Y28799D02*
D03*
X8287Y28465D02*
D03*
X15728Y35207D02*
D03*
X16743Y30463D02*
D03*
X15837Y31211D02*
D03*
X16644Y31850D02*
D03*
X16723Y33102D02*
D03*
X13939Y33553D02*
D03*
X15315Y34911D02*
D03*
X15896Y34006D02*
D03*
X15463D02*
D03*
X15030D02*
D03*
X15896Y33573D02*
D03*
X15463D02*
D03*
X15030D02*
D03*
X15896Y33140D02*
D03*
X15463D02*
D03*
X15030D02*
D03*
X14567Y34656D02*
D03*
X15069Y35256D02*
D03*
X16053Y34980D02*
D03*
X18186Y35448D02*
D03*
D51*
X16634Y31457D02*
D03*
D52*
X12943Y39272D02*
D03*
X13081Y39055D02*
D03*
D53*
X9754Y32411D02*
D03*
X9843Y31998D02*
D03*
D54*
X10433Y40551D02*
D03*
X11614D02*
D03*
X10433Y38976D02*
D03*
X11614D02*
D03*
D55*
X10758Y37795D02*
D03*
X11289D02*
D03*
X11152Y36614D02*
D03*
X11683D02*
D03*
X11575Y34154D02*
D03*
X12087D02*
D03*
X17313Y35531D02*
D03*
X16782D02*
D03*
X17461Y34783D02*
D03*
X17972D02*
D03*
X17451Y34055D02*
D03*
X17982D02*
D03*
D56*
X11132Y35433D02*
D03*
X11703D02*
D03*
D57*
X8465Y35728D02*
D03*
Y35138D02*
D03*
D58*
X17382Y33376D02*
D03*
Y32746D02*
D03*
D59*
X12067Y33228D02*
D03*
X11594D02*
D03*
D60*
X15866Y30768D02*
D03*
X16457D02*
D03*
D61*
X16417Y34163D02*
D03*
Y33967D02*
D03*
Y33770D02*
D03*
Y33573D02*
D03*
Y33376D02*
D03*
Y33179D02*
D03*
Y32982D02*
D03*
X14508D02*
D03*
Y33179D02*
D03*
Y33376D02*
D03*
Y33573D02*
D03*
Y33770D02*
D03*
Y33967D02*
D03*
Y34163D02*
D03*
D62*
X16053Y32618D02*
D03*
X15856D02*
D03*
X15659D02*
D03*
X15463D02*
D03*
X15266D02*
D03*
X15069D02*
D03*
X14872D02*
D03*
Y34528D02*
D03*
X15069D02*
D03*
X15266D02*
D03*
X15463D02*
D03*
X15659D02*
D03*
X15856D02*
D03*
X16053D02*
D03*
D63*
X15450Y33573D02*
D03*
D64*
X25254Y35928D02*
Y38257D01*
Y33309D02*
Y35928D01*
X18972Y30875D02*
X19256Y31159D01*
X18972Y29846D02*
Y30875D01*
X18722Y29596D02*
X18972Y29846D01*
X17534Y29596D02*
X18722D01*
X23103Y31159D02*
X25254Y33309D01*
X19256Y31159D02*
X23103D01*
X20472Y41732D02*
X22760Y39444D01*
X24066D01*
X25254Y38257D01*
X18051Y39444D02*
X22760D01*
D65*
X16585Y33179D02*
X16662Y33102D01*
X16723D01*
D66*
X24433Y37469D02*
D03*
D67*
X7902Y41769D02*
D03*
D68*
X14860Y34633D02*
D03*
D69*
X14370Y34163D02*
D03*
D70*
X14124Y34183D02*
D03*
D71*
X15266Y34690D02*
D03*
M02*
